<?xml version="1.0" encoding="UTF-8" standalone="no"?>
<svg
   xmlns:dc="http://purl.org/dc/elements/1.1/"
   xmlns:cc="http://creativecommons.org/ns#"
   xmlns:rdf="http://www.w3.org/1999/02/22-rdf-syntax-ns#"
   xmlns:svg="http://www.w3.org/2000/svg"
   xmlns="http://www.w3.org/2000/svg"
   xmlns:sodipodi="http://sodipodi.sourceforge.net/DTD/sodipodi-0.dtd"
   xmlns:inkscape="http://www.inkscape.org/namespaces/inkscape"
   version="1.1"
   x="0px"
   y="0px"
   viewBox="0 0 100 100"
   xml:space="preserve"
   id="svg34"
   sodipodi:docname="noun_Deploy_2715518.svg"
   width="100"
   height="100"
   inkscape:version="0.92.4 (5da689c313, 2019-01-14)"><metadata
     id="metadata40"><rdf:RDF><cc:Work
         rdf:about=""><dc:format>image/svg+xml</dc:format><dc:type
           rdf:resource="http://purl.org/dc/dcmitype/StillImage" /><dc:title></dc:title></cc:Work></rdf:RDF></metadata><defs
     id="defs38" /><sodipodi:namedview
     pagecolor="#ffffff"
     bordercolor="#666666"
     borderopacity="1"
     objecttolerance="10"
     gridtolerance="10"
     guidetolerance="10"
     inkscape:pageopacity="0"
     inkscape:pageshadow="2"
     inkscape:window-width="1770"
     inkscape:window-height="1024"
     id="namedview36"
     showgrid="false"
     inkscape:zoom="2.9473336"
     inkscape:cx="59.383983"
     inkscape:cy="45.693111"
     inkscape:window-x="150"
     inkscape:window-y="28"
     inkscape:window-maximized="1"
     inkscape:current-layer="svg34" /><g
     id="g28"
     transform="matrix(0.77583379,0,0,0.77583379,0.44833242,0.244943)"><g
       id="g26"><path
         d="M 64,126 C 29.813,126 2,98.187 2,64 2,29.813 29.813,2 64,2 c 34.187,0 62,27.813 62,62 0,34.187 -27.813,62 -62,62 z M 64,5 C 31.467,5 5,31.467 5,64 5,96.533 31.467,123 64,123 96.533,123 123,96.533 123,64 123,31.467 96.533,5 64,5 Z"
         id="path2"
         inkscape:connector-curvature="0" /><g
         id="g24"><g
           id="g14"><path
             d="m 54.009,82.337 c -0.391,0 -0.772,-0.153 -1.058,-0.436 l -7.93,-7.879 c -0.394,-0.391 -0.539,-0.968 -0.378,-1.499 1.92,-6.33 4.408,-12.646 7.398,-18.773 2.987,-6.148 6.707,-13.804 11.728,-19.144 0.002,-0.002 0.003,-0.004 0.005,-0.005 11.267,-11.865 29.338,-12.384 39.107,-11.638 0.742,0.057 1.33,0.649 1.382,1.391 0.683,9.765 0.076,27.806 -11.656,38.911 -5.274,5.007 -13.042,8.698 -19.284,11.664 -6.159,2.967 -12.516,5.44 -18.885,7.346 -0.141,0.041 -0.286,0.062 -0.429,0.062 z m -6.23,-9.804 6.651,6.609 c 5.933,-1.824 11.849,-4.15 17.598,-6.92 C 78.4,69.195 85.614,65.767 90.543,61.087 100.891,51.294 101.848,35.33 101.351,25.866 91.885,25.312 75.892,26.198 65.953,36.665 61.247,41.673 57.639,49.098 54.74,55.064 51.954,60.771 49.614,66.643 47.779,72.533 Z"
             id="path4"
             inkscape:connector-curvature="0" /><path
             d="m 77.854,56.712 c -1.932,0 -3.862,-0.73 -5.332,-2.19 -1.427,-1.417 -2.213,-3.304 -2.213,-5.311 0,-2.007 0.786,-3.893 2.214,-5.311 2.938,-2.921 7.722,-2.919 10.662,0 1.427,1.418 2.213,3.304 2.213,5.311 0,2.007 -0.786,3.893 -2.213,5.311 -1.469,1.46 -3.4,2.19 -5.331,2.19 z m 0,-12.005 c -1.165,0 -2.33,0.441 -3.217,1.322 -0.857,0.851 -1.328,1.981 -1.328,3.183 0,1.202 0.471,2.332 1.327,3.182 1.775,1.763 4.66,1.763 6.434,0 0.856,-0.851 1.328,-1.981 1.328,-3.183 0,-1.202 -0.472,-2.332 -1.328,-3.183 -0.886,-0.881 -2.051,-1.321 -3.216,-1.321 z"
             id="path6"
             inkscape:connector-curvature="0" /><path
             d="m 48.942,65.129 c -0.04,0 -0.081,-0.001 -0.121,-0.005 L 35.592,64.069 c -0.455,-0.036 -0.868,-0.277 -1.124,-0.655 -0.255,-0.378 -0.324,-0.852 -0.188,-1.287 0.443,-1.42 4.926,-14.109 25.461,-22.381 0.571,-0.229 1.229,-0.087 1.653,0.364 0.424,0.45 0.527,1.114 0.262,1.672 -0.182,0.381 -0.504,0.652 -0.877,0.78 -15.475,6.255 -21.103,14.899 -22.911,18.679 l 11.191,0.893 c 0.826,0.066 1.442,0.789 1.376,1.614 -0.062,0.785 -0.718,1.381 -1.493,1.381 z"
             id="path8"
             inkscape:connector-curvature="0" /><path
             d="m 64.53,92.708 c -0.297,0 -0.59,-0.088 -0.841,-0.258 -0.377,-0.255 -0.617,-0.667 -0.654,-1.121 l -1.062,-13.14 c -0.066,-0.826 0.549,-1.549 1.374,-1.616 0.818,-0.068 1.55,0.548 1.616,1.375 l 0.898,11.115 c 3.792,-1.787 12.496,-7.365 18.799,-22.715 0.113,-0.38 0.377,-0.715 0.762,-0.907 0.557,-0.279 1.238,-0.187 1.696,0.238 0.459,0.425 0.612,1.085 0.376,1.664 -8.323,20.4 -21.093,24.857 -22.521,25.298 -0.145,0.045 -0.294,0.067 -0.443,0.067 z"
             id="path10"
             inkscape:connector-curvature="0" /><path
             d="m 100.632,48.421 c -0.382,0 -0.765,-0.145 -1.058,-0.436 L 79.104,27.648 c -0.587,-0.584 -0.591,-1.534 -0.007,-2.121 0.585,-0.587 1.533,-0.592 2.122,-0.007 l 20.47,20.337 c 0.587,0.584 0.591,1.534 0.007,2.121 -0.294,0.295 -0.678,0.443 -1.064,0.443 z"
             id="path12"
             inkscape:connector-curvature="0" /></g><g
           id="g22"><path
             d="m 25.835,104.464 c -0.375,0 -0.751,-0.14 -1.042,-0.421 -0.596,-0.576 -0.612,-1.525 -0.037,-2.121 L 42.84,83.199 c 0.576,-0.595 1.525,-0.612 2.121,-0.037 0.596,0.576 0.612,1.525 0.037,2.121 l -18.084,18.723 c -0.295,0.305 -0.686,0.458 -1.079,0.458 z"
             id="path16"
             inkscape:connector-curvature="0" /><path
             d="m 38.56,105.254 c -0.354,0 -0.71,-0.125 -0.995,-0.378 -0.619,-0.55 -0.676,-1.499 -0.125,-2.118 L 49.16,89.566 c 0.549,-0.619 1.498,-0.676 2.117,-0.125 0.619,0.551 0.676,1.499 0.125,2.118 l -11.72,13.191 c -0.296,0.334 -0.708,0.504 -1.122,0.504 z"
             id="path18"
             inkscape:connector-curvature="0" /><path
             d="m 25.039,92.611 c -0.354,0 -0.71,-0.125 -0.995,-0.379 -0.619,-0.55 -0.676,-1.498 -0.125,-2.117 L 35.64,76.923 c 0.549,-0.619 1.498,-0.677 2.117,-0.125 0.619,0.55 0.676,1.498 0.125,2.117 L 26.161,92.107 c -0.296,0.334 -0.708,0.504 -1.122,0.504 z"
             id="path20"
             inkscape:connector-curvature="0" /></g></g></g></g></svg>